<svg width="121" height="41" viewBox="0 0 121 41" fill="none" xmlns="http://www.w3.org/2000/svg">
<g clip-path="url(#clip0_10183_28249)">
<path d="M110.803 0.50013H10.2026C9.83595 0.50013 9.47365 0.50013 9.10792 0.50213C8.80177 0.50413 8.49806 0.50994 8.18897 0.51483C7.51748 0.522732 6.84758 0.581806 6.18507 0.69154C5.52349 0.803663 4.88264 1.01505 4.28419 1.31854C3.68647 1.6246 3.14031 2.0223 2.66554 2.4972C2.18827 2.97077 1.79043 3.51815 1.48732 4.11829C1.18337 4.71724 0.972609 5.35907 0.862319 6.02161C0.75098 6.68332 0.691067 7.35265 0.683119 8.02361C0.673839 8.33021 0.672859 8.63783 0.667969 8.94447V32.0587C0.672859 32.3692 0.673839 32.67 0.683119 32.9806C0.69107 33.6516 0.750982 34.3209 0.862319 34.9825C0.972305 35.6455 1.18308 36.2877 1.48732 36.8868C1.79029 37.485 2.18819 38.0302 2.66554 38.5011C3.13851 38.9781 3.68502 39.3761 4.28419 39.6798C4.88264 39.9841 5.52342 40.1968 6.18507 40.3106C6.84769 40.4195 7.51753 40.4786 8.18897 40.4874C8.49806 40.4942 8.80177 40.4981 9.10792 40.4981C9.47364 40.5001 9.83597 40.5001 10.2026 40.5001H110.803C111.162 40.5001 111.527 40.5001 111.887 40.4981C112.191 40.4981 112.504 40.4942 112.809 40.4874C113.479 40.4791 114.147 40.42 114.809 40.3106C115.472 40.196 116.115 39.9834 116.717 39.6798C117.315 39.3759 117.861 38.978 118.334 38.5011C118.81 38.0284 119.209 37.4836 119.516 36.8868C119.818 36.2872 120.026 35.6451 120.135 34.9825C120.246 34.3208 120.308 33.6516 120.32 32.9806C120.324 32.67 120.324 32.3692 120.324 32.0587C120.332 31.6954 120.332 31.3341 120.332 30.9649V10.0363C120.332 9.67005 120.332 9.30677 120.324 8.94447C120.324 8.63783 120.324 8.33021 120.32 8.02357C120.308 7.35255 120.246 6.68337 120.135 6.02157C120.026 5.35941 119.817 4.71763 119.516 4.11825C118.898 2.91533 117.92 1.93616 116.717 1.31845C116.115 1.0157 115.472 0.80437 114.809 0.69145C114.148 0.581233 113.479 0.522138 112.809 0.51469C112.504 0.50981 112.191 0.50395 111.887 0.502C111.527 0.5 111.162 0.50013 110.803 0.50013Z" fill="#A6A6A6"/>
<path d="M9.11088 39.625C8.8062 39.625 8.50888 39.6211 8.20659 39.6143C7.58037 39.6061 6.95562 39.5516 6.33745 39.4512C5.76104 39.3519 5.20266 39.1673 4.68071 38.9033C4.16355 38.6415 3.69186 38.2983 3.28371 37.8867C2.86965 37.48 2.52493 37.0082 2.2632 36.4902C1.99859 35.9688 1.81547 35.4099 1.7202 34.833C1.61733 34.2131 1.56167 33.5863 1.5537 32.958C1.54736 32.7471 1.53906 32.0449 1.53906 32.0449V8.94434C1.53906 8.94434 1.5479 8.25293 1.55375 8.0498C1.56138 7.42248 1.61671 6.79665 1.71928 6.17773C1.81472 5.59925 1.99799 5.03875 2.26274 4.51563C2.52351 3.99794 2.86632 3.52586 3.27788 3.11768C3.68899 2.70562 4.16218 2.3606 4.68022 2.09521C5.20097 1.83209 5.7583 1.64873 6.33354 1.55127C6.95374 1.44984 7.58066 1.395 8.20905 1.38721L9.11137 1.375H111.88L112.793 1.3877C113.416 1.3951 114.037 1.44945 114.651 1.55029C115.232 1.64898 115.796 1.83362 116.322 2.09814C117.36 2.63299 118.205 3.47916 118.737 4.51807C118.998 5.03758 119.178 5.59351 119.273 6.16699C119.376 6.79099 119.434 7.42174 119.446 8.0542C119.449 8.3374 119.449 8.6416 119.449 8.94434C119.457 9.31934 119.457 9.67627 119.457 10.0361V30.9648C119.457 31.3281 119.457 31.6826 119.449 32.04C119.449 32.3652 119.449 32.6631 119.445 32.9697C119.434 33.5909 119.377 34.2104 119.274 34.8232C119.181 35.4043 118.999 35.9675 118.734 36.4932C118.471 37.0056 118.128 37.4733 117.719 37.8789C117.31 38.2927 116.838 38.6379 116.319 38.9014C115.794 39.1674 115.232 39.3527 114.651 39.4512C114.033 39.5522 113.408 39.6067 112.782 39.6143C112.489 39.6211 112.183 39.625 111.885 39.625L110.801 39.627L9.11088 39.625Z" fill="black"/>
<path d="M25.4379 20.8013C25.4487 19.9666 25.6704 19.1483 26.0824 18.4223C26.4944 17.6964 27.0834 17.0864 27.7945 16.6492C27.3428 16.0041 26.7468 15.4731 26.054 15.0986C25.3612 14.724 24.5905 14.5162 23.8033 14.4916C22.1241 14.3153 20.4961 15.4964 19.6404 15.4964C18.7682 15.4964 17.4507 14.5091 16.0319 14.5383C15.1143 14.5679 14.2199 14.8348 13.436 15.3128C12.6522 15.7909 12.0055 16.4638 11.559 17.2661C9.62502 20.6145 11.0676 25.5356 12.9202 28.2422C13.8471 29.5676 14.9304 31.048 16.3478 30.9955C17.7349 30.938 18.2529 30.111 19.9272 30.111C21.586 30.111 22.072 30.9955 23.5182 30.9621C25.0066 30.938 25.9444 29.6309 26.8388 28.293C27.5047 27.3486 28.0172 26.3049 28.3572 25.2005C27.4925 24.8347 26.7546 24.2226 26.2354 23.4403C25.7163 22.658 25.4389 21.7402 25.4379 20.8013Z" fill="white"/>
<path d="M22.7075 12.7113C23.519 11.7371 23.9188 10.4849 23.822 9.2207C22.5822 9.35092 21.4369 9.94348 20.6144 10.8803C20.2123 11.338 19.9043 11.8704 19.7081 12.4472C19.5118 13.024 19.4312 13.6337 19.4707 14.2417C20.0909 14.2481 20.7044 14.1137 21.265 13.8486C21.8257 13.5835 22.3189 13.1946 22.7075 12.7113Z" fill="white"/>
<path d="M42.9727 27.6397H38.2393L37.1025 30.9961H35.0977L39.5811 18.5781H41.6641L46.1475 30.9961H44.1084L42.9727 27.6397ZM38.7295 26.0908H42.4815L40.6319 20.6436H40.5801L38.7295 26.0908Z" fill="white"/>
<path d="M55.8291 26.4695C55.8291 29.2829 54.3233 31.0905 52.0508 31.0905C51.4752 31.1207 50.9027 30.9881 50.3989 30.7079C49.8951 30.4278 49.4803 30.0114 49.2022 29.5065H49.1592V33.9909H47.3008V21.9421H49.0996V23.448H49.1338C49.4248 22.9455 49.8465 22.5313 50.3541 22.2495C50.8618 21.9676 51.4363 21.8287 52.0166 21.8474C54.3144 21.8474 55.8291 23.6638 55.8291 26.4695ZM53.919 26.4695C53.919 24.6365 52.9717 23.4314 51.5264 23.4314C50.1065 23.4314 49.1514 24.6618 49.1514 26.4695C49.1514 28.2937 50.1065 29.5154 51.5264 29.5154C52.9717 29.5154 53.919 28.3191 53.919 26.4695Z" fill="white"/>
<path d="M65.794 26.4694C65.794 29.2829 64.2881 31.0905 62.0157 31.0905C61.44 31.1206 60.8675 30.988 60.3637 30.7079C59.8599 30.4278 59.4452 30.0114 59.167 29.5065H59.124V33.9909H57.2656V21.9421H59.0644V23.448H59.0986C59.3896 22.9455 59.8113 22.5313 60.3189 22.2495C60.8266 21.9676 61.4011 21.8287 61.9814 21.8474C64.2793 21.8474 65.794 23.6638 65.794 26.4694ZM63.8838 26.4694C63.8838 24.6364 62.9365 23.4314 61.4912 23.4314C60.0713 23.4314 59.1162 24.6618 59.1162 26.4694C59.1162 28.2937 60.0713 29.5153 61.4912 29.5153C62.9366 29.5153 63.8838 28.3191 63.8838 26.4694Z" fill="white"/>
<path d="M72.3789 27.5362C72.5166 28.7676 73.7129 29.5762 75.3477 29.5762C76.9141 29.5762 78.041 28.7676 78.041 27.6572C78.041 26.6934 77.3614 26.1162 75.752 25.7207L74.1426 25.333C71.8623 24.7822 70.8037 23.7158 70.8037 21.9854C70.8037 19.8428 72.6709 18.3711 75.3223 18.3711C77.9463 18.3711 79.7451 19.8428 79.8057 21.9854H77.9297C77.8174 20.7461 76.793 19.9981 75.2959 19.9981C73.7988 19.9981 72.7744 20.7549 72.7744 21.8565C72.7744 22.7344 73.4287 23.251 75.0293 23.6465L76.3975 23.9824C78.9453 24.5849 80.0039 25.6084 80.0039 27.4248C80.0039 29.748 78.1533 31.2031 75.21 31.2031C72.4561 31.2031 70.5967 29.7822 70.4766 27.5361L72.3789 27.5362Z" fill="white"/>
<path d="M84.0156 19.7998V21.9424H85.7373V23.4141H84.0156V28.4053C84.0156 29.1807 84.3603 29.542 85.1172 29.542C85.3216 29.5384 85.5256 29.5241 85.7285 29.499V30.9619C85.3882 31.0255 85.0424 31.0543 84.6963 31.0478C82.8633 31.0478 82.1484 30.3593 82.1484 28.6035V23.4141H80.832V21.9424H82.1484V19.7998H84.0156Z" fill="white"/>
<path d="M86.7344 26.4697C86.7344 23.6211 88.4121 21.8311 91.0283 21.8311C93.6533 21.8311 95.3232 23.6211 95.3232 26.4697C95.3232 29.3262 93.6621 31.1084 91.0283 31.1084C88.3955 31.1084 86.7344 29.3262 86.7344 26.4697ZM93.4297 26.4697C93.4297 24.5156 92.5342 23.3623 91.0283 23.3623C89.5225 23.3623 88.6279 24.5244 88.6279 26.4697C88.6279 28.4316 89.5225 29.5762 91.0283 29.5762C92.5342 29.5762 93.4297 28.4316 93.4297 26.4697Z" fill="white"/>
<path d="M96.8555 21.942H98.6279V23.483H98.6709C98.7909 23.0017 99.0728 22.5764 99.4694 22.2785C99.866 21.9806 100.353 21.8284 100.849 21.8473C101.063 21.8465 101.276 21.8698 101.485 21.9166V23.6549C101.215 23.5723 100.933 23.5343 100.65 23.5426C100.38 23.5316 100.111 23.5792 99.8614 23.6821C99.6116 23.785 99.387 23.9408 99.203 24.1386C99.019 24.3365 98.88 24.5719 98.7956 24.8286C98.7112 25.0852 98.6833 25.3571 98.7139 25.6256V30.9957H96.8555L96.8555 21.942Z" fill="white"/>
<path d="M110.054 28.3369C109.804 29.9805 108.203 31.1084 106.155 31.1084C103.521 31.1084 101.887 29.3437 101.887 26.5127C101.887 23.6729 103.53 21.8311 106.077 21.8311C108.582 21.8311 110.157 23.5518 110.157 26.2969V26.9336H103.763V27.0459C103.733 27.3791 103.775 27.7148 103.885 28.0306C103.995 28.3464 104.171 28.6352 104.402 28.8778C104.632 29.1203 104.911 29.3111 105.221 29.4374C105.531 29.5637 105.864 29.6226 106.198 29.6103C106.637 29.6515 107.078 29.5498 107.455 29.3203C107.832 29.0909 108.124 28.746 108.289 28.3369L110.054 28.3369ZM103.771 25.6348H108.298C108.315 25.3352 108.269 25.0354 108.164 24.7541C108.06 24.4729 107.898 24.2164 107.69 24.0006C107.481 23.7849 107.23 23.6145 106.953 23.5003C106.675 23.3861 106.377 23.3305 106.077 23.3369C105.775 23.3351 105.475 23.3933 105.194 23.508C104.914 23.6227 104.66 23.7918 104.446 24.0054C104.231 24.2191 104.061 24.473 103.946 24.7527C103.83 25.0323 103.771 25.3321 103.771 25.6348Z" fill="white"/>
<path d="M38.4951 9.2304C38.8847 9.20244 39.2757 9.2613 39.6398 9.40274C40.0039 9.54417 40.3321 9.76465 40.6007 10.0483C40.8693 10.3319 41.0716 10.6716 41.193 11.0429C41.3144 11.4141 41.3519 11.8077 41.3027 12.1952C41.3027 14.1015 40.2725 15.1972 38.4951 15.1972H36.3398V9.2304H38.4951ZM37.2666 14.3534H38.3916C38.67 14.37 38.9486 14.3244 39.2071 14.2198C39.4657 14.1152 39.6977 13.9542 39.8861 13.7487C40.0746 13.5431 40.2149 13.2981 40.2968 13.0315C40.3786 12.7648 40.4 12.4833 40.3594 12.2074C40.3971 11.9326 40.3735 11.6528 40.2904 11.3881C40.2073 11.1235 40.0667 10.8805 39.8786 10.6765C39.6905 10.4726 39.4597 10.3128 39.2026 10.2086C38.9455 10.1043 38.6686 10.0582 38.3916 10.0736H37.2666V14.3534Z" fill="white"/>
<path d="M42.3499 12.9438C42.3216 12.6479 42.3554 12.3493 42.4493 12.0672C42.5431 11.7852 42.6949 11.5258 42.8948 11.3059C43.0948 11.0859 43.3385 10.9101 43.6103 10.7898C43.8822 10.6696 44.1762 10.6074 44.4734 10.6074C44.7707 10.6074 45.0647 10.6696 45.3365 10.7898C45.6084 10.9101 45.8521 11.0859 46.052 11.3059C46.252 11.5258 46.4037 11.7852 46.4976 12.0672C46.5914 12.3493 46.6253 12.6479 46.597 12.9438C46.6258 13.24 46.5924 13.539 46.4988 13.8215C46.4052 14.1041 46.2535 14.3639 46.0535 14.5843C45.8535 14.8047 45.6096 14.9808 45.3375 15.1014C45.0654 15.2219 44.771 15.2842 44.4734 15.2842C44.1758 15.2842 43.8815 15.2219 43.6093 15.1014C43.3372 14.9808 43.0933 14.8047 42.8933 14.5843C42.6933 14.3639 42.5417 14.1041 42.4481 13.8215C42.3545 13.539 42.321 13.24 42.3499 12.9438ZM45.6829 12.9438C45.6829 11.9677 45.2444 11.3969 44.4749 11.3969C43.7024 11.3969 43.2679 11.9677 43.2679 12.9438C43.2679 13.9277 43.7025 14.4941 44.4749 14.4941C45.2444 14.4941 45.6829 13.9238 45.6829 12.9438Z" fill="white"/>
<path d="M52.2422 15.1973H51.3203L50.3897 11.8809H50.3193L49.3926 15.1973H48.4795L47.2383 10.6943H48.1397L48.9463 14.1303H49.0127L49.9385 10.6943H50.791L51.7168 14.1303H51.7871L52.5898 10.6943H53.4785L52.2422 15.1973Z" fill="white"/>
<path d="M54.5234 10.6939H55.3789V11.4092H55.4453C55.558 11.1523 55.748 10.9369 55.9888 10.7931C56.2297 10.6493 56.5095 10.5842 56.7891 10.607C57.0082 10.5905 57.2282 10.6235 57.4328 10.7036C57.6374 10.7837 57.8213 10.9088 57.971 11.0697C58.1207 11.2305 58.2323 11.423 58.2975 11.6328C58.3627 11.8426 58.3798 12.0644 58.3477 12.2818V15.1968H57.459V12.5049C57.459 11.7813 57.1445 11.4214 56.4873 11.4214C56.3386 11.4145 56.1901 11.4398 56.052 11.4957C55.9139 11.5515 55.7896 11.6365 55.6875 11.7449C55.5853 11.8533 55.5079 11.9825 55.4603 12.1236C55.4128 12.2647 55.3963 12.4145 55.4121 12.5625V15.1968H54.5234L54.5234 10.6939Z" fill="white"/>
<path d="M59.7617 8.93652H60.6504V15.1973H59.7617V8.93652Z" fill="white"/>
<path d="M61.885 12.9439C61.8567 12.6479 61.8906 12.3494 61.9845 12.0673C62.0783 11.7852 62.2301 11.5259 62.4301 11.3059C62.63 11.0859 62.8738 10.9101 63.1456 10.7898C63.4175 10.6696 63.7115 10.6074 64.0088 10.6074C64.3061 10.6074 64.6001 10.6696 64.872 10.7898C65.1438 10.9101 65.3876 11.0859 65.5875 11.3059C65.7875 11.5259 65.9393 11.7852 66.0331 12.0673C66.127 12.3494 66.1609 12.6479 66.1326 12.9439C66.1614 13.2401 66.1279 13.5391 66.0343 13.8216C65.9407 14.1042 65.789 14.364 65.589 14.5844C65.3889 14.8048 65.145 14.9809 64.8729 15.1014C64.6008 15.222 64.3064 15.2842 64.0088 15.2842C63.7112 15.2842 63.4168 15.222 63.1447 15.1014C62.8726 14.9809 62.6286 14.8048 62.4286 14.5844C62.2286 14.364 62.0769 14.1042 61.9833 13.8216C61.8897 13.5391 61.8562 13.2401 61.885 12.9439ZM65.218 12.9439C65.218 11.9678 64.7795 11.397 64.01 11.397C63.2376 11.397 62.803 11.9678 62.803 12.9439C62.803 13.9278 63.2376 14.4942 64.01 14.4942C64.7796 14.4942 65.218 13.9239 65.218 12.9439Z" fill="white"/>
<path d="M67.0703 13.9238C67.0703 13.1133 67.6738 12.646 68.7451 12.5796L69.9648 12.5093V12.1206C69.9648 11.645 69.6504 11.3765 69.043 11.3765C68.5469 11.3765 68.2031 11.5586 68.1045 11.877H67.2441C67.335 11.1035 68.0625 10.6074 69.084 10.6074C70.2129 10.6074 70.8496 11.1694 70.8496 12.1206V15.1973H69.9941V14.5645H69.9238C69.7811 14.7914 69.5807 14.9765 69.3431 15.1007C69.1055 15.2249 68.8391 15.2838 68.5713 15.2715C68.3823 15.2911 68.1912 15.2709 68.0104 15.2122C67.8297 15.1536 67.6632 15.0576 67.5218 14.9307C67.3804 14.8037 67.2671 14.6485 67.1894 14.4751C67.1116 14.3017 67.0711 14.1139 67.0703 13.9238ZM69.9648 13.5391V13.1626L68.8652 13.2329C68.2451 13.2744 67.9639 13.4853 67.9639 13.8823C67.9639 14.2876 68.3154 14.5234 68.7989 14.5234C68.9405 14.5378 69.0836 14.5235 69.2196 14.4814C69.3556 14.4393 69.4817 14.3703 69.5905 14.2784C69.6993 14.1866 69.7885 14.0738 69.8528 13.9468C69.9171 13.8198 69.9552 13.6811 69.9648 13.5391Z" fill="white"/>
<path d="M72.0156 12.9439C72.0156 11.521 72.7471 10.6196 73.8848 10.6196C74.1662 10.6067 74.4455 10.6741 74.69 10.814C74.9345 10.9539 75.1342 11.1605 75.2656 11.4096H75.332V8.93652H76.2207V15.1973H75.3691V14.4858H75.2988C75.1572 14.7333 74.9506 14.9374 74.7014 15.0758C74.4521 15.2143 74.1697 15.282 73.8848 15.2715C72.7393 15.2715 72.0156 14.3701 72.0156 12.9439ZM72.9336 12.9439C72.9336 13.8989 73.3838 14.4737 74.1368 14.4737C74.8858 14.4737 75.3487 13.8907 75.3487 12.9478C75.3487 12.0093 74.8809 11.418 74.1368 11.418C73.3887 11.418 72.9336 11.9966 72.9336 12.9439Z" fill="white"/>
<path d="M79.9007 12.9438C79.8724 12.6479 79.9062 12.3493 80.0001 12.0672C80.0939 11.7852 80.2457 11.5258 80.4456 11.3059C80.6455 11.0859 80.8892 10.9101 81.1611 10.7898C81.4329 10.6696 81.7269 10.6074 82.0242 10.6074C82.3215 10.6074 82.6155 10.6696 82.8873 10.7898C83.1592 10.9101 83.4029 11.0859 83.6028 11.3059C83.8028 11.5258 83.9545 11.7852 84.0484 12.0672C84.1422 12.3493 84.176 12.6479 84.1477 12.9438C84.1766 13.24 84.1431 13.539 84.0495 13.8215C83.956 14.1041 83.8043 14.3639 83.6043 14.5843C83.4043 14.8047 83.1604 14.9808 82.8883 15.1014C82.6162 15.2219 82.3218 15.2842 82.0242 15.2842C81.7266 15.2842 81.4322 15.2219 81.1601 15.1014C80.888 14.9808 80.6441 14.8047 80.4441 14.5843C80.2441 14.3639 80.0925 14.1041 79.9989 13.8215C79.9053 13.539 79.8718 13.24 79.9007 12.9438ZM83.2337 12.9438C83.2337 11.9677 82.7952 11.3969 82.0257 11.3969C81.2532 11.3969 80.8187 11.9677 80.8187 12.9438C80.8187 13.9277 81.2532 14.4941 82.0257 14.4941C82.7952 14.4941 83.2337 13.9238 83.2337 12.9438Z" fill="white"/>
<path d="M85.3398 10.6939H86.1953V11.4092H86.2617C86.3744 11.1523 86.5644 10.9369 86.8053 10.7931C87.0461 10.6493 87.3259 10.5842 87.6055 10.607C87.8246 10.5905 88.0446 10.6235 88.2492 10.7036C88.4538 10.7837 88.6377 10.9088 88.7874 11.0697C88.9371 11.2305 89.0487 11.423 89.1139 11.6328C89.1791 11.8426 89.1962 12.0644 89.1641 12.2818V15.1968H88.2754V12.5049C88.2754 11.7813 87.9609 11.4214 87.3037 11.4214C87.155 11.4145 87.0065 11.4398 86.8684 11.4957C86.7303 11.5515 86.606 11.6365 86.5039 11.7449C86.4017 11.8533 86.3243 11.9825 86.2767 12.1236C86.2292 12.2647 86.2128 12.4145 86.2285 12.5625V15.1968H85.3398V10.6939Z" fill="white"/>
<path d="M94.1826 9.57324V10.7148H95.1582V11.4634H94.1826V13.7788C94.1826 14.2505 94.377 14.457 94.8193 14.457C94.9326 14.4567 95.0457 14.4498 95.1582 14.4365V15.1768C94.9986 15.2053 94.8369 15.2205 94.6748 15.2222C93.6865 15.2222 93.293 14.8745 93.293 14.0063V11.4633H92.5781V10.7148H93.293V9.57324H94.1826Z" fill="white"/>
<path d="M96.375 8.93652H97.2559V11.418H97.3262C97.4443 11.1587 97.6395 10.9421 97.8852 10.7977C98.1309 10.6534 98.4151 10.5883 98.6992 10.6113C98.9171 10.5995 99.135 10.6359 99.3373 10.7179C99.5396 10.7999 99.7213 10.9256 99.8694 11.086C100.017 11.2463 100.128 11.4373 100.194 11.6455C100.26 11.8536 100.279 12.0737 100.25 12.29V15.1973H99.3604V12.5093C99.3604 11.79 99.0254 11.4258 98.3975 11.4258C98.2448 11.4132 98.0911 11.4342 97.9473 11.4873C97.8036 11.5404 97.6731 11.6242 97.5651 11.7329C97.4571 11.8417 97.3742 11.9727 97.3221 12.1168C97.2701 12.261 97.2501 12.4147 97.2637 12.5674V15.1973H96.375L96.375 8.93652Z" fill="white"/>
<path d="M105.429 13.9815C105.309 14.3931 105.047 14.749 104.69 14.9872C104.334 15.2253 103.905 15.3305 103.478 15.2842C103.182 15.2921 102.887 15.2353 102.614 15.1177C102.342 15.0002 102.098 14.8248 101.9 14.6036C101.702 14.3825 101.555 14.1209 101.468 13.8371C101.381 13.5533 101.358 13.254 101.398 12.96C101.359 12.6652 101.383 12.3652 101.469 12.0805C101.556 11.7959 101.703 11.5331 101.899 11.31C102.096 11.087 102.339 10.9088 102.61 10.7876C102.882 10.6664 103.177 10.605 103.474 10.6075C104.727 10.6075 105.483 11.4635 105.483 12.8775V13.1876H102.303V13.2374C102.289 13.4026 102.31 13.569 102.364 13.7257C102.418 13.8825 102.505 14.0262 102.618 14.1476C102.731 14.2691 102.868 14.3656 103.02 14.431C103.172 14.4964 103.337 14.5292 103.503 14.5274C103.715 14.5529 103.931 14.5146 104.121 14.4174C104.312 14.3202 104.47 14.1685 104.574 13.9815L105.429 13.9815ZM102.303 12.5303H104.578C104.589 12.3792 104.568 12.2274 104.517 12.0847C104.467 11.942 104.386 11.8115 104.282 11.7016C104.177 11.5918 104.051 11.505 103.911 11.4468C103.771 11.3886 103.621 11.3604 103.469 11.3638C103.316 11.3619 103.163 11.3908 103.021 11.4487C102.878 11.5067 102.749 11.5925 102.64 11.7012C102.532 11.8099 102.446 11.9393 102.388 12.0817C102.33 12.2241 102.301 12.3766 102.303 12.5303Z" fill="white"/>
</g>
<defs>
<clipPath id="clip0_10183_28249">
<rect width="119.664" height="40" fill="white" transform="translate(0.667969 0.5)"/>
</clipPath>
</defs>
</svg>
