<svg width="136" height="41" viewBox="0 0 136 41" fill="none" xmlns="http://www.w3.org/2000/svg">
<g clip-path="url(#clip0_10183_28284)">
<path d="M130.332 0.5H5.33203C2.57061 0.5 0.332031 2.73858 0.332031 5.5V35.5C0.332031 38.2614 2.57061 40.5 5.33203 40.5H130.332C133.093 40.5 135.332 38.2614 135.332 35.5V5.5C135.332 2.73858 133.093 0.5 130.332 0.5Z" fill="black"/>
<path d="M130.332 1.3C132.652 1.3 134.532 3.18 134.532 5.5V35.5C134.532 37.82 132.652 39.7 130.332 39.7H5.33203C3.01203 39.7 1.13203 37.82 1.13203 35.5V5.5C1.13203 3.18 3.01203 1.3 5.33203 1.3H130.332ZM130.332 0.5H5.33203C2.58203 0.5 0.332031 2.75 0.332031 5.5V35.5C0.332031 38.25 2.58203 40.5 5.33203 40.5H130.332C133.082 40.5 135.332 38.25 135.332 35.5V5.5C135.332 2.75 133.082 0.5 130.332 0.5Z" fill="#A6A6A6"/>
<path d="M47.7536 10.7401C47.7536 11.5801 47.5036 12.2501 47.0036 12.7401C46.4436 13.3301 45.7036 13.6301 44.8036 13.6301C43.9036 13.6301 43.2036 13.3301 42.5936 12.7301C41.9836 12.1301 41.6836 11.3801 41.6836 10.5001C41.6836 9.62012 41.9836 8.87012 42.5936 8.27012C43.2036 7.67012 43.9336 7.37012 44.8036 7.37012C45.2336 7.37012 45.6436 7.45012 46.0336 7.62012C46.4236 7.79012 46.7336 8.01012 46.9736 8.29012L46.4436 8.82012C46.0436 8.35012 45.5036 8.11012 44.8036 8.11012C44.1736 8.11012 43.6236 8.33012 43.1636 8.78012C42.7036 9.22012 42.4736 9.80012 42.4736 10.5101C42.4736 11.2201 42.7036 11.8001 43.1636 12.2401C43.6236 12.6801 44.1736 12.9101 44.8036 12.9101C45.4736 12.9101 46.0336 12.6901 46.4836 12.2401C46.7736 11.9501 46.9436 11.5401 46.9836 11.0201H44.8036V10.3001H47.7136C47.7436 10.4601 47.7536 10.6101 47.7536 10.7501V10.7401Z" fill="white" stroke="white" stroke-width="0.2" stroke-miterlimit="10"/>
<path d="M52.3633 8.24H49.6333V10.14H52.0933V10.86H49.6333V12.76H52.3633V13.5H48.8633V7.5H52.3633V8.24Z" fill="white" stroke="white" stroke-width="0.2" stroke-miterlimit="10"/>
<path d="M55.6141 13.5H54.8441V8.24H53.1641V7.5H57.2841V8.24H55.6041V13.5H55.6141Z" fill="white" stroke="white" stroke-width="0.2" stroke-miterlimit="10"/>
<path d="M60.2734 13.5V7.5H61.0434V13.5H60.2734Z" fill="white" stroke="white" stroke-width="0.2" stroke-miterlimit="10"/>
<path d="M64.4617 13.5H63.6917V8.24H62.0117V7.5H66.1317V8.24H64.4517V13.5H64.4617Z" fill="white" stroke="white" stroke-width="0.2" stroke-miterlimit="10"/>
<path d="M73.9441 12.7201C73.3541 13.3301 72.6241 13.6301 71.7441 13.6301C70.8641 13.6301 70.1341 13.3301 69.5441 12.7201C68.9541 12.1101 68.6641 11.3701 68.6641 10.5001C68.6641 9.63012 68.9541 8.88012 69.5441 8.28012C70.1341 7.67012 70.8641 7.37012 71.7441 7.37012C72.6241 7.37012 73.3441 7.67012 73.9441 8.28012C74.5341 8.89012 74.8341 9.63012 74.8341 10.5001C74.8341 11.3701 74.5341 12.1201 73.9541 12.7201H73.9441ZM70.1141 12.2201C70.5541 12.6701 71.1041 12.8901 71.7441 12.8901C72.3841 12.8901 72.9341 12.6701 73.3741 12.2201C73.8141 11.7701 74.0441 11.2001 74.0441 10.5001C74.0441 9.80012 73.8241 9.23012 73.3741 8.78012C72.9341 8.33012 72.3841 8.11012 71.7441 8.11012C71.1041 8.11012 70.5541 8.33012 70.1141 8.78012C69.6741 9.23012 69.4441 9.80012 69.4441 10.5001C69.4441 11.2001 69.6641 11.7701 70.1141 12.2201Z" fill="white" stroke="white" stroke-width="0.2" stroke-miterlimit="10"/>
<path d="M75.9141 13.5V7.5H76.8541L79.7741 12.17H79.8041L79.7741 11.01V7.5H80.5441V13.5H79.7441L76.6941 8.61H76.6641L76.6941 9.77V13.51H75.9241L75.9141 13.5Z" fill="white" stroke="white" stroke-width="0.2" stroke-miterlimit="10"/>
<path d="M68.4711 22.2498C66.1211 22.2498 64.2011 24.0398 64.2011 26.4998C64.2011 28.9598 66.1211 30.7498 68.4711 30.7498C70.8211 30.7498 72.7411 28.9498 72.7411 26.4998C72.7411 24.0498 70.8211 22.2498 68.4711 22.2498ZM68.4711 29.0798C67.1811 29.0798 66.0711 28.0198 66.0711 26.4998C66.0711 24.9798 67.1811 23.9198 68.4711 23.9198C69.7611 23.9198 70.8711 24.9698 70.8711 26.4998C70.8711 28.0298 69.7611 29.0798 68.4711 29.0798ZM59.1511 22.2498C56.8011 22.2498 54.8811 24.0398 54.8811 26.4998C54.8811 28.9598 56.8011 30.7498 59.1511 30.7498C61.5011 30.7498 63.4211 28.9498 63.4211 26.4998C63.4211 24.0498 61.5011 22.2498 59.1511 22.2498ZM59.1511 29.0798C57.8611 29.0798 56.7511 28.0198 56.7511 26.4998C56.7511 24.9798 57.8611 23.9198 59.1511 23.9198C60.4411 23.9198 61.5511 24.9698 61.5511 26.4998C61.5511 28.0298 60.4411 29.0798 59.1511 29.0798ZM48.0711 23.5598V25.3598H52.3911C52.2611 26.3798 51.9211 27.1198 51.4111 27.6298C50.7811 28.2598 49.8011 28.9498 48.0811 28.9498C45.4211 28.9498 43.3411 26.8098 43.3411 24.1498C43.3411 21.4898 45.4211 19.3498 48.0811 19.3498C49.5111 19.3498 50.5611 19.9098 51.3311 20.6398L52.6011 19.3698C51.5211 18.3398 50.0911 17.5498 48.0711 17.5498C44.4311 17.5498 41.3711 20.5098 41.3711 24.1598C41.3711 27.8098 44.4311 30.7698 48.0711 30.7698C50.0411 30.7698 51.5211 30.1298 52.6811 28.9198C53.8711 27.7298 54.2411 26.0498 54.2411 24.6998C54.2411 24.2798 54.2111 23.8898 54.1411 23.5698H48.0711V23.5598ZM93.3811 24.9598C93.0311 24.0098 91.9511 22.2498 89.7411 22.2498C87.5311 22.2498 85.7311 23.9698 85.7311 26.4998C85.7311 28.8798 87.5311 30.7498 89.9511 30.7498C91.9011 30.7498 93.0311 29.5598 93.4911 28.8698L92.0411 27.8998C91.5611 28.6098 90.9011 29.0798 89.9511 29.0798C89.0011 29.0798 88.3211 28.6398 87.8911 27.7898L93.5811 25.4398L93.3911 24.9598H93.3811ZM87.5811 26.3798C87.5311 24.7398 88.8511 23.8998 89.8011 23.8998C90.5411 23.8998 91.1711 24.2698 91.3811 24.7998L87.5811 26.3798ZM82.9611 30.4998H84.8311V17.9998H82.9611V30.4998ZM79.9011 23.1998H79.8411C79.4211 22.6998 78.6211 22.2498 77.6011 22.2498C75.4711 22.2498 73.5211 24.1198 73.5211 26.5198C73.5211 28.9198 75.4711 30.7598 77.6011 30.7598C78.6211 30.7598 79.4211 30.3098 79.8411 29.7898H79.9011V30.3998C79.9011 32.0298 79.0311 32.8998 77.6311 32.8998C76.4911 32.8998 75.7811 32.0798 75.4911 31.3898L73.8611 32.0698C74.3311 33.1998 75.5711 34.5798 77.6311 34.5798C79.8211 34.5798 81.6711 33.2898 81.6711 30.1498V22.5098H79.9011V23.1998ZM77.7511 29.0798C76.4611 29.0798 75.3811 27.9998 75.3811 26.5198C75.3811 25.0398 76.4611 23.9298 77.7511 23.9298C79.0411 23.9298 80.0211 25.0298 80.0211 26.5198C80.0211 28.0098 79.0211 29.0798 77.7511 29.0798ZM102.141 17.9998H97.6711V30.4998H99.5411V25.7598H102.151C104.221 25.7598 106.251 24.2598 106.251 21.8798C106.251 19.4998 104.221 17.9998 102.151 17.9998H102.141ZM102.181 24.0198H99.5311V19.7298H102.181C103.581 19.7298 104.371 20.8898 104.371 21.8698C104.371 22.8498 103.581 24.0098 102.181 24.0098V24.0198ZM113.721 22.2298C112.371 22.2298 110.971 22.8298 110.391 24.1398L112.051 24.8298C112.401 24.1398 113.061 23.9098 113.751 23.9098C114.711 23.9098 115.701 24.4898 115.711 25.5198V25.6498C115.371 25.4598 114.651 25.1698 113.761 25.1698C111.971 25.1698 110.161 26.1498 110.161 27.9798C110.161 29.6498 111.621 30.7298 113.261 30.7298C114.511 30.7298 115.211 30.1698 115.641 29.5098H115.701V30.4798H117.501V25.6898C117.501 23.4698 115.841 22.2298 113.701 22.2298H113.721ZM113.491 29.0798C112.881 29.0798 112.031 28.7698 112.031 28.0198C112.031 27.0598 113.091 26.6898 114.011 26.6898C114.831 26.6898 115.221 26.8698 115.711 27.1098C115.571 28.2698 114.571 29.0898 113.491 29.0898V29.0798ZM124.071 22.4998L121.931 27.9198H121.871L119.651 22.4998H117.641L120.971 30.0798L119.071 34.2898H121.021L126.151 22.4998H124.081H124.071ZM107.271 30.4998H109.141V17.9998H107.271V30.4998Z" fill="white"/>
<path d="M21.0523 19.9192L10.4023 31.2192C10.7323 32.4492 11.8523 33.3492 13.1823 33.3492C13.7123 33.3492 14.2123 33.2092 14.6423 32.9492L14.6723 32.9292L26.6523 26.0192L21.0423 19.9092L21.0523 19.9192Z" fill="#EA4335"/>
<path d="M31.8225 17.9993H31.8125L26.6425 14.9893L20.8125 20.1793L26.6625 26.0293L31.8125 23.0593C32.7125 22.5693 33.3225 21.6193 33.3225 20.5293C33.3225 19.4393 32.7225 18.4893 31.8225 18.0093V17.9993Z" fill="#FBBC04"/>
<path d="M10.4008 9.7793C10.3408 10.0193 10.3008 10.2593 10.3008 10.5193V30.4893C10.3008 30.7493 10.3308 30.9893 10.4008 31.2293L21.4108 20.2193L10.4008 9.7793Z" fill="#4285F4"/>
<path d="M21.1323 20.4996L26.6423 14.9896L14.6723 8.04965C14.2423 7.78965 13.7323 7.63965 13.1823 7.63965C11.8523 7.63965 10.7323 8.54965 10.4023 9.76965L21.1323 20.4896V20.4996Z" fill="#34A853"/>
</g>
<defs>
<clipPath id="clip0_10183_28284">
<rect width="135" height="40" fill="white" transform="translate(0.332031 0.5)"/>
</clipPath>
</defs>
</svg>
